<svg xmlns="http://www.w3.org/2000/svg" width="911" height="907" viewBox="0 0 911 907">
<g>
<path d="M 539.79 586.40 C534.04,589.21 522.44,590.54 516.00,589.13 C508.59,587.50 505.50,585.08 482.31,562.82 C477.26,557.97 472.85,554.00 472.51,554.00 C472.18,554.00 470.91,552.98 469.70,551.74 C467.21,549.18 439.46,523.11 431.12,515.50 C415.75,501.46 413.44,498.89 415.09,497.66 C415.96,497.02 416.86,495.98 417.09,495.35 C417.31,494.72 422.27,489.09 428.09,482.85 C433.92,476.61 440.17,469.80 441.98,467.71 C443.79,465.63 445.62,464.05 446.05,464.21 C446.48,464.37 453.28,470.58 461.15,478.00 C469.03,485.42 478.17,493.98 481.46,497.00 C484.75,500.02 489.71,504.60 492.47,507.17 C498.60,512.86 502.56,516.00 503.60,516.00 C504.03,516.00 505.98,514.28 507.94,512.18 C515.67,503.89 541.61,475.13 546.21,469.75 C547.50,468.24 549.22,467.00 550.03,467.01 C550.84,467.01 553.97,469.32 557.00,472.13 C569.11,483.40 573.73,487.63 577.04,490.51 C581.37,494.26 587.13,501.41 589.54,506.00 C592.30,511.24 592.11,525.89 589.21,532.06 C585.72,539.50 584.27,540.31 574.24,540.43 C562.28,540.58 557.52,543.20 550.31,553.60 C547.22,558.06 545.83,566.71 547.10,573.58 C548.40,580.61 547.15,582.80 539.79,586.40 ZM 299.00 563.70 C299.00,565.13 296.59,565.30 293.50,564.08 C292.40,563.65 287.32,563.01 282.20,562.66 C272.94,562.02 257.44,557.72 247.26,552.98 C244.93,551.89 242.34,551.00 241.51,551.00 C240.68,551.00 240.00,550.63 240.00,550.19 C240.00,549.74 238.54,548.62 236.75,547.70 C229.36,543.89 216.46,533.82 203.11,521.44 C198.93,517.56 193.02,512.16 190.00,509.44 C186.98,506.72 184.14,503.94 183.70,503.25 C183.26,502.56 182.29,502.00 181.53,502.00 C180.78,502.00 180.02,501.64 179.83,501.21 C179.32,499.99 165.40,489.00 164.37,489.00 C163.87,489.00 161.76,487.84 159.68,486.43 C155.72,483.74 136.75,474.00 135.46,474.00 C135.05,474.00 132.87,473.16 130.61,472.14 C126.18,470.13 121.27,468.33 116.50,466.96 C114.85,466.49 110.35,465.15 106.50,463.97 C102.65,462.80 98.15,461.62 96.50,461.35 C85.58,459.54 91.53,457.83 108.30,457.95 C116.11,458.01 126.55,457.57 131.50,456.98 C136.45,456.39 151.30,455.59 164.50,455.20 L 188.50 454.50 L 188.32 437.50 C188.23,428.15 187.66,413.75 187.07,405.50 C185.49,383.58 185.14,361.88 186.39,362.30 C187.83,362.78 195.00,375.22 198.33,383.00 C199.85,386.58 201.53,390.28 202.05,391.24 C203.74,394.33 209.89,411.81 211.11,417.00 C211.57,418.92 212.67,423.42 213.57,427.00 C214.47,430.58 215.87,436.88 216.69,441.00 C217.51,445.12 218.58,449.86 219.07,451.52 C219.56,453.19 220.41,457.24 220.94,460.52 C222.58,470.58 224.14,477.34 225.60,480.78 C226.37,482.59 227.00,484.80 227.00,485.71 C227.00,487.76 230.98,497.75 234.69,505.00 C245.61,526.37 266.88,545.92 294.75,560.22 C297.09,561.42 299.00,562.98 299.00,563.70 ZM 153.72 438.19 C150.45,439.89 147.37,440.46 140.00,440.72 C131.18,441.03 130.06,440.85 124.37,438.11 C116.87,434.51 111.57,428.49 107.72,419.21 C104.07,410.43 104.44,403.61 109.07,394.20 C113.06,386.11 117.89,381.23 125.52,377.62 C130.79,375.13 132.15,374.91 139.92,375.29 C151.66,375.86 155.37,377.39 162.50,384.57 C167.54,389.66 168.90,391.82 170.89,397.89 C173.35,405.37 173.49,414.23 171.23,418.59 C170.68,419.64 169.70,421.66 169.04,423.08 C167.19,427.08 158.39,435.76 153.72,438.19 ZM 583.50 593.00 C582.74,594.23 572.33,594.34 571.58,593.13 C571.28,592.65 569.79,592.01 568.27,591.70 C566.75,591.39 563.97,589.65 562.10,587.82 C552.60,578.55 552.61,563.19 562.13,554.38 C569.44,547.61 579.47,546.41 588.36,551.25 C593.37,553.97 594.32,555.05 597.51,561.60 C601.96,570.72 600.46,579.46 593.12,587.07 C590.35,589.94 587.48,592.00 586.24,592.00 C585.07,592.00 583.84,592.45 583.50,593.00 Z" fill="rgb(46,188,187)"/>
<path d="M 481.00 433.41 C480.17,434.67 477.45,437.78 474.94,440.32 C470.67,444.65 470.29,444.83 468.78,443.22 C467.89,442.27 463.67,438.35 459.40,434.50 C448.53,424.71 430.57,407.65 430.17,406.75 C429.98,406.34 429.45,406.00 428.97,406.00 C428.50,406.00 425.73,403.48 422.82,400.40 C419.91,397.33 416.31,394.18 414.83,393.41 C412.20,392.05 411.98,392.17 406.55,397.86 C403.48,401.08 399.52,405.43 397.74,407.54 C395.96,409.65 392.70,413.26 390.50,415.57 C388.30,417.87 385.42,421.05 384.11,422.63 C377.51,430.55 366.63,442.00 365.70,442.00 C365.12,442.00 361.24,438.77 357.08,434.82 C326.40,405.74 324.50,403.11 324.50,389.88 C324.50,384.99 324.96,381.64 325.75,380.85 C326.44,380.16 327.00,378.96 327.00,378.18 C327.00,377.40 328.24,374.78 329.75,372.36 C332.11,368.60 332.86,368.06 335.00,368.57 C340.60,369.93 346.23,370.17 347.29,369.11 C347.90,368.50 349.37,368.00 350.55,368.00 C354.94,368.00 365.09,358.93 367.81,352.57 C368.89,350.05 369.69,335.23 368.95,331.46 C368.47,329.03 369.12,327.00 370.38,327.00 C371.14,327.00 372.29,326.35 372.95,325.57 C376.15,321.71 382.35,319.75 391.50,319.70 C405.32,319.63 406.50,320.41 438.50,350.54 C447.30,358.82 455.80,366.70 457.39,368.05 C458.98,369.40 461.01,371.20 461.89,372.06 C462.78,372.91 470.02,379.71 478.00,387.16 C485.98,394.61 494.70,402.79 497.39,405.33 L 502.28 409.96 L 492.39 420.54 C486.95,426.36 481.83,432.15 481.00,433.41 ZM 266.70 418.63 C267.54,421.09 268.02,423.31 267.77,423.56 C267.52,423.81 264.19,420.07 260.36,415.26 C250.65,403.04 248.69,400.27 245.30,394.00 C243.67,390.98 241.83,387.60 241.20,386.50 C238.65,382.00 234.60,370.95 234.87,369.27 C234.90,369.14 234.26,367.47 233.46,365.55 C232.66,363.63 232.00,360.67 232.00,358.97 C232.00,357.26 231.56,355.05 231.02,354.04 C229.67,351.51 228.04,333.31 227.00,309.00 C226.51,297.73 225.65,285.58 225.08,282.00 C223.48,271.91 221.47,262.77 220.18,259.68 C219.53,258.14 219.00,256.20 219.00,255.37 C219.00,254.55 218.05,251.54 216.90,248.69 C215.74,245.83 214.43,242.60 213.99,241.50 C210.59,233.08 204.93,220.91 203.98,220.00 C203.69,219.73 202.91,218.38 202.24,217.00 C201.56,215.62 200.59,213.82 200.07,213.00 C196.59,207.46 192.00,199.34 192.00,198.73 C192.00,197.32 193.58,198.02 196.56,200.75 C198.21,202.26 206.08,209.60 214.03,217.06 C221.99,224.51 229.45,231.26 230.61,232.06 C231.76,232.85 238.98,239.43 246.63,246.68 C265.13,264.20 265.40,264.39 267.95,262.80 C269.08,262.09 270.00,261.16 270.00,260.71 C270.00,260.27 271.02,258.91 272.26,257.70 C273.50,256.49 280.13,249.43 287.01,242.01 C301.38,226.50 299.85,228.18 307.14,219.90 C319.09,206.35 329.85,195.53 330.62,196.30 C331.06,196.73 330.95,197.86 330.37,198.80 C329.78,199.73 328.76,202.98 328.08,206.00 C327.41,209.02 326.45,212.40 325.96,213.50 C324.86,215.94 322.07,223.76 321.32,226.50 C320.78,228.48 308.01,254.64 305.70,258.50 C305.04,259.60 303.04,262.64 301.25,265.25 C299.46,267.87 298.00,270.27 298.00,270.59 C298.00,270.91 295.08,275.45 291.50,280.69 C287.92,285.92 285.00,290.41 285.00,290.65 C285.00,291.16 276.80,303.23 275.94,304.00 C275.38,304.50 266.43,322.68 264.86,326.50 C258.88,341.13 256.03,360.53 257.81,374.67 C260.33,394.83 261.07,399.43 261.86,399.95 C262.32,400.25 262.99,402.70 263.35,405.40 C263.71,408.09 264.52,410.92 265.14,411.67 C265.77,412.43 266.04,413.30 265.73,413.60 C265.42,413.91 265.86,416.17 266.70,418.63 ZM 277.31 227.63 C272.99,229.60 270.57,229.99 262.81,229.94 C254.38,229.89 253.03,229.61 248.50,226.96 C245.75,225.35 242.71,223.75 241.75,223.40 C240.79,223.05 240.00,222.14 240.00,221.38 C240.00,220.62 239.61,220.00 239.13,220.00 C237.82,220.00 233.62,213.12 231.51,207.50 C229.36,201.77 229.09,191.27 230.98,187.17 C235.07,178.31 236.92,175.42 240.50,172.29 C248.66,165.17 260.10,161.89 269.46,163.99 C275.62,165.37 283.63,169.32 287.24,172.75 C290.45,175.80 295.00,184.11 295.00,186.92 C295.00,188.00 295.45,189.16 296.00,189.50 C296.55,189.84 297.00,193.21 297.00,197.00 C297.00,200.79 296.55,204.16 296.00,204.50 C295.45,204.84 295.00,206.01 295.00,207.11 C295.00,212.66 285.22,224.01 277.31,227.63 ZM 0.00 0.00 L 3.00 0.00 L 3.00 907.00 L 0.00 907.00 ZM 347.23 358.58 C341.05,361.31 336.67,361.60 333.00,359.50 C331.62,358.71 329.81,358.05 328.96,358.04 C328.12,358.02 325.34,355.86 322.78,353.25 C317.17,347.51 315.47,341.02 317.25,332.14 C318.64,325.19 325.66,317.65 331.65,316.66 C338.12,315.59 345.37,315.95 348.00,317.48 C349.38,318.27 351.17,319.25 352.00,319.65 C354.02,320.64 356.00,322.66 356.00,323.73 C356.00,324.21 356.53,325.13 357.17,325.77 C360.24,328.84 362.35,342.05 360.00,343.50 C359.45,343.84 359.00,345.04 359.00,346.17 C359.00,349.76 353.10,355.98 347.23,358.58 Z" fill="rgb(47,106,165)"/>
<path d="M 407.00 589.04 C400.56,592.32 389.26,592.75 382.59,589.96 C379.89,588.83 376.40,587.00 374.84,585.89 C372.09,583.93 372.00,583.59 372.00,575.01 C372.00,567.55 371.61,565.38 369.48,561.14 C367.03,556.27 358.75,548.02 356.28,548.01 C355.62,548.00 352.93,547.27 350.30,546.38 C346.66,545.14 344.83,545.01 342.52,545.80 C334.21,548.65 333.64,548.52 329.16,542.71 C321.56,532.85 320.72,518.73 327.06,507.38 C329.01,503.88 346.43,483.97 348.25,483.17 C348.66,482.98 349.00,482.20 349.00,481.42 C349.00,480.64 349.56,479.97 350.25,479.94 C350.94,479.90 354.09,476.87 357.25,473.19 C364.65,464.59 367.93,460.97 380.87,447.13 C386.72,440.87 391.95,434.97 392.50,434.01 C393.05,433.06 397.77,427.72 403.00,422.16 L 412.50 412.05 L 418.50 417.61 C421.80,420.67 425.03,423.47 425.67,423.84 C426.31,424.20 431.21,428.73 436.56,433.90 C445.14,442.19 446.18,443.56 445.39,445.55 C444.90,446.79 439.70,452.91 433.83,459.15 C427.96,465.39 421.89,472.09 420.33,474.03 C417.60,477.44 414.66,480.66 401.27,494.88 C397.84,498.52 395.03,501.97 395.02,502.55 C395.01,503.13 398.26,506.59 402.25,510.24 C406.24,513.89 412.18,519.37 415.46,522.44 C418.73,525.50 421.56,528.00 421.74,528.00 C421.92,528.00 425.54,531.30 429.78,535.33 C434.03,539.37 439.26,544.25 441.41,546.18 L 445.33 549.69 L 436.28 560.09 C421.87,576.66 411.85,586.57 407.00,589.04 ZM 210.30 712.19 C207.90,714.14 202.00,716.76 202.00,715.88 C202.00,714.94 211.05,704.63 216.38,699.50 C218.10,697.85 221.30,694.26 223.50,691.53 C225.70,688.80 228.46,685.65 229.64,684.53 C230.81,683.41 237.77,675.97 245.10,668.00 C252.42,660.03 258.77,653.35 259.21,653.17 C259.64,652.98 260.00,652.20 260.00,651.42 C260.00,650.64 260.56,649.99 261.25,649.98 C262.94,649.95 268.28,642.27 267.50,641.00 C267.15,640.44 263.64,637.22 259.69,633.84 C255.73,630.47 246.20,621.76 238.50,614.49 C230.80,607.23 221.80,599.02 218.50,596.26 C215.20,593.49 209.35,588.19 205.50,584.49 L 198.50 577.75 L 203.50 578.43 C208.01,579.05 214.04,580.78 219.50,583.04 C220.60,583.49 223.30,584.38 225.50,585.01 C227.70,585.64 230.85,586.74 232.50,587.47 C234.15,588.19 237.75,589.77 240.50,590.98 C248.59,594.53 252.47,596.45 253.02,597.19 C253.31,597.57 254.66,598.36 256.02,598.95 C259.02,600.25 265.73,604.11 272.50,608.43 C275.25,610.19 279.98,613.14 283.00,614.99 C286.02,616.85 290.30,619.77 292.50,621.49 C294.70,623.20 298.70,625.93 301.39,627.55 C304.07,629.17 307.45,631.27 308.89,632.21 C310.32,633.15 314.42,635.35 318.00,637.11 C321.58,638.86 326.52,641.30 329.00,642.53 C331.48,643.76 335.98,645.32 339.00,645.99 C342.02,646.67 345.62,647.70 347.00,648.28 C350.65,649.81 380.24,650.40 388.50,649.10 C399.71,647.33 412.79,644.54 413.60,643.74 C414.00,643.33 415.05,643.00 415.92,642.99 C416.79,642.99 418.79,642.32 420.36,641.49 C423.50,639.86 427.00,639.51 427.00,640.84 C427.00,641.68 418.08,649.57 414.96,651.50 C414.07,652.05 411.20,654.08 408.59,656.00 C403.47,659.78 396.30,664.10 391.50,666.31 C389.85,667.07 386.02,668.83 383.00,670.21 C375.89,673.48 368.73,675.69 362.62,676.51 C359.94,676.87 356.79,677.56 355.62,678.04 C354.45,678.53 343.83,679.40 332.00,679.98 C306.32,681.24 282.58,683.37 277.89,684.82 C276.03,685.40 272.48,686.31 270.00,686.84 C260.23,688.94 252.27,691.28 247.50,693.45 C236.96,698.26 228.44,702.20 227.00,702.93 C221.38,705.79 211.30,711.38 210.30,712.19 ZM 466.98 806.00 C465.14,815.78 463.45,820.54 462.42,818.88 C461.95,818.12 461.25,806.92 460.87,794.00 C460.48,781.08 459.83,759.09 459.42,745.14 L 458.67 719.79 L 429.59 720.43 C413.59,720.78 396.00,721.54 390.50,722.11 C385.00,722.69 376.45,723.01 371.50,722.83 L 362.50 722.50 L 368.00 719.22 C371.02,717.41 374.17,715.54 375.00,715.06 C376.82,714.00 387.16,709.19 392.00,707.16 C393.92,706.36 396.62,705.16 398.00,704.51 C401.22,702.97 410.86,699.69 418.50,697.52 C421.80,696.58 426.52,695.19 429.00,694.43 C431.48,693.67 435.52,692.77 438.00,692.44 C440.48,692.11 443.40,691.44 444.50,690.95 C445.60,690.46 449.42,689.60 453.00,689.06 C464.64,687.27 487.00,682.23 488.46,681.07 C489.03,680.61 491.06,679.90 492.97,679.49 C494.87,679.08 497.12,678.38 497.97,677.94 C498.81,677.49 503.02,675.52 507.32,673.55 C511.62,671.58 518.69,667.22 523.02,663.86 C531.35,657.41 542.00,647.58 542.00,646.36 C542.00,645.96 543.74,643.57 545.86,641.05 C547.99,638.53 551.47,633.77 553.60,630.48 C557.66,624.20 557.86,623.86 562.70,614.86 C569.00,603.14 569.22,603.14 568.45,615.00 C568.08,620.78 567.15,627.96 566.39,630.96 C565.62,633.96 565.00,637.34 565.00,638.46 C564.99,640.18 563.14,645.96 559.53,655.50 C555.76,665.46 545.96,681.84 538.95,689.88 C537.05,692.05 534.70,694.88 533.72,696.16 C532.74,697.44 527.29,703.43 521.61,709.49 C506.07,726.06 504.01,728.41 504.00,729.56 C504.00,730.15 502.65,731.92 501.01,733.49 C499.36,735.07 496.13,739.54 493.82,743.43 C491.51,747.32 489.03,751.09 488.31,751.82 C487.59,752.55 487.00,753.54 487.00,754.03 C487.00,754.51 485.65,757.20 484.00,760.00 C482.35,762.80 481.00,765.50 481.00,766.01 C481.00,766.51 479.42,770.24 477.50,774.30 C475.58,778.35 474.00,782.33 474.00,783.14 C474.00,783.95 473.34,785.49 472.53,786.56 C471.72,787.63 471.05,789.56 471.03,790.85 C471.01,792.14 470.37,794.62 469.60,796.35 C468.84,798.08 467.66,802.42 466.98,806.00 ZM 420.18 801.53 C412.83,802.73 411.41,802.77 406.20,801.89 C395.61,800.11 387.51,794.15 382.57,784.50 C379.28,778.07 378.99,776.80 379.00,768.87 C379.00,758.42 381.56,751.74 388.07,745.23 C393.79,739.52 403.82,735.00 410.77,735.00 C420.22,735.00 429.21,738.51 435.83,744.79 C444.98,753.46 448.29,767.68 444.04,779.99 C440.60,789.95 429.44,800.03 420.18,801.53 ZM 209.00 678.12 C209.00,679.26 193.97,679.16 192.00,678.00 C191.18,677.52 188.48,676.17 186.00,675.00 C176.74,670.62 170.95,663.40 168.47,653.16 C166.94,646.87 166.86,644.91 167.87,639.39 C169.91,628.34 176.26,619.75 185.97,614.94 C191.31,612.29 192.85,612.00 201.75,612.00 C208.88,612.00 212.16,612.41 213.56,613.47 C214.63,614.28 216.22,614.95 217.10,614.97 C219.45,615.02 229.75,626.23 232.01,631.21 C234.27,636.20 234.72,649.27 232.87,656.62 C231.19,663.27 220.20,674.42 213.71,676.05 C211.12,676.70 209.00,677.63 209.00,678.12 ZM 345.20 600.07 C343.94,600.58 342.36,600.94 341.70,600.87 C338.48,600.52 331.93,598.33 330.83,597.23 C330.15,596.55 329.13,595.99 328.55,595.97 C326.59,595.91 321.28,587.52 320.08,582.58 C318.66,576.73 319.99,569.59 323.52,564.00 C328.21,556.60 341.51,552.81 350.13,556.41 C354.30,558.15 359.00,561.77 359.00,563.24 C359.00,563.85 359.73,565.15 360.63,566.15 C362.71,568.45 363.62,580.06 362.13,585.50 C360.85,590.23 353.92,597.78 350.12,598.58 C348.68,598.89 346.47,599.56 345.20,600.07 Z" fill="rgb(199,29,39)"/>
<path d="M 712.00 325.15 C712.00,326.81 709.92,326.48 698.00,322.95 C685.61,319.29 664.96,310.92 661.92,308.34 C661.05,307.60 659.81,307.00 659.15,307.00 C658.50,307.00 654.34,304.75 649.90,302.00 C645.47,299.25 641.68,297.00 641.48,297.00 C641.29,297.00 633.33,291.76 623.81,285.37 C606.64,273.83 579.85,259.00 576.16,259.00 C575.11,259.00 572.73,258.38 570.87,257.62 C565.72,255.51 545.66,253.66 535.00,254.31 C521.88,255.11 509.22,257.49 491.64,262.46 C488.42,263.37 485.50,263.82 485.14,263.46 C484.45,262.76 488.47,259.08 496.50,253.06 C526.75,230.40 545.00,224.87 595.50,223.03 C608.15,222.56 620.75,221.71 623.50,221.13 C626.25,220.55 630.75,219.64 633.50,219.11 C647.00,216.53 665.98,210.77 673.00,207.12 C688.71,198.95 698.57,193.50 698.83,192.83 C699.02,192.37 699.92,191.99 700.83,191.98 C701.75,191.97 703.62,191.08 705.00,190.00 C710.81,185.46 710.35,188.84 704.25,195.49 C692.08,208.77 679.97,221.96 674.44,227.94 C664.01,239.23 654.70,249.52 649.22,255.83 L 643.94 261.91 L 650.22 267.81 C664.02,280.76 672.64,288.73 675.37,291.06 C676.95,292.40 680.86,295.98 684.06,299.00 C687.26,302.02 694.85,308.98 700.94,314.46 C707.02,319.93 712.00,324.74 712.00,325.15 ZM 348.53 290.25 C346.58,293.96 344.74,297.00 344.46,297.00 C343.24,297.00 342.87,293.67 343.33,286.82 C343.85,279.04 346.06,266.17 347.16,264.49 C347.52,263.94 348.11,261.69 348.47,259.49 C349.18,255.14 351.47,249.33 356.73,238.50 C361.40,228.88 361.67,228.46 369.23,218.99 C371.65,215.96 374.05,212.73 374.57,211.82 C375.08,210.90 380.23,205.11 386.00,198.93 C391.77,192.76 397.17,186.98 398.00,186.08 C405.32,178.13 414.96,165.43 420.40,156.59 C423.89,150.92 433.00,133.66 433.00,132.73 C433.00,132.22 433.62,130.61 434.38,129.15 C436.09,125.85 439.14,117.38 441.45,109.50 C442.42,106.20 443.81,101.70 444.55,99.50 C445.28,97.30 446.18,93.39 446.55,90.82 C446.91,88.24 447.79,85.91 448.50,85.64 C449.51,85.25 449.93,89.37 450.45,104.82 C450.82,115.65 451.54,127.80 452.06,131.82 C452.58,135.85 453.06,146.20 453.12,154.82 C453.19,163.45 453.53,173.65 453.87,177.50 L 454.50 184.50 L 461.00 184.84 C464.58,185.03 471.77,184.68 477.00,184.06 C485.79,183.02 548.08,180.75 548.78,181.44 C549.84,182.51 523.39,196.05 511.00,200.78 C490.42,208.64 478.53,211.65 441.00,218.55 C436.33,219.40 431.77,220.50 430.87,220.98 C429.98,221.47 427.50,222.17 425.37,222.55 C418.61,223.74 395.34,234.53 392.00,238.02 C391.73,238.31 390.28,239.32 388.79,240.27 C377.24,247.61 359.21,270.00 348.53,290.25 ZM 514.12 166.18 C508.53,168.89 495.55,169.66 489.50,167.65 C484.95,166.14 477.51,161.31 474.40,157.84 C470.99,154.06 468.09,147.92 466.67,141.51 C465.57,136.53 465.57,134.42 466.67,129.01 C469.35,115.91 475.87,108.42 489.29,103.05 C505.67,96.50 527.55,107.79 532.08,125.14 C534.84,135.69 534.36,140.97 529.75,150.91 C527.22,156.36 520.15,163.26 514.12,166.18 ZM 720.25 291.66 C714.51,293.17 705.43,293.25 702.00,291.82 C700.62,291.24 697.84,290.09 695.81,289.26 C690.67,287.15 683.45,279.62 680.27,273.04 C678.02,268.37 677.59,266.13 677.55,258.80 C677.52,253.12 677.93,249.67 678.75,248.85 C679.44,248.16 680.00,246.90 680.00,246.04 C680.00,245.18 681.57,242.14 683.49,239.29 C688.54,231.79 697.62,226.85 707.55,226.22 C718.31,225.52 723.02,226.55 729.71,231.05 C734.26,234.10 736.58,236.64 739.94,242.25 C744.23,249.40 744.29,249.63 744.37,259.00 C744.44,267.97 744.25,268.85 741.04,274.83 C737.97,280.54 730.78,288.00 728.35,288.00 C727.83,288.00 726.86,288.54 726.20,289.20 C725.53,289.87 722.86,290.97 720.25,291.66 ZM 677.40 398.75 C681.15,406.22 679.87,405.25 675.41,397.25 C664.62,377.88 650.59,364.55 624.56,348.92 C613.57,342.33 611.11,340.47 612.61,339.88 C615.67,338.68 620.68,338.89 629.87,340.62 C634.62,341.51 639.57,342.43 640.87,342.67 C642.17,342.90 643.04,343.29 642.80,343.53 C642.56,343.77 638.35,343.25 633.43,342.37 C621.15,340.18 618.62,340.14 618.22,342.15 C618.00,343.27 619.75,344.84 623.70,347.08 C639.35,355.96 654.77,367.85 662.84,377.24 C667.44,382.59 674.58,393.14 677.40,398.75 ZM 821.09 444.60 C822.06,445.78 821.00,445.98 814.37,445.88 C810.04,445.82 807.29,445.56 808.25,445.31 C811.46,444.47 810.10,442.10 805.75,440.95 C798.30,438.98 790.44,436.15 792.23,436.07 C793.18,436.03 795.66,436.62 797.73,437.37 C803.03,439.29 811.83,441.76 816.21,442.54 C818.26,442.91 820.45,443.84 821.09,444.60 ZM 718.50 702.01 C720.37,705.61 719.03,706.61 716.05,703.84 C714.41,702.31 714.14,701.53 715.03,700.98 C715.72,700.55 715.92,699.67 715.47,698.96 C714.96,698.13 715.09,697.94 715.85,698.41 C716.49,698.80 717.68,700.42 718.50,702.01 ZM 646.87 485.00 C646.47,485.00 645.96,485.79 645.73,486.75 C645.25,488.76 644.63,487.61 643.55,482.70 L 642.93 479.89 L 646.47 483.11 C648.41,484.87 650.00,486.56 650.00,486.86 C650.00,487.16 649.46,486.86 648.80,486.20 C648.14,485.54 647.27,485.00 646.87,485.00 ZM 779.50 529.06 C776.93,530.08 767.86,530.20 766.33,529.23 C765.69,528.82 768.84,528.43 773.33,528.38 C778.28,528.31 780.71,528.58 779.50,529.06 ZM 584.63 706.25 C583.03,707.76 581.58,709.00 581.39,709.00 C580.98,709.00 582.13,702.68 582.64,702.08 C582.84,701.85 583.00,702.42 583.00,703.33 C583.00,705.07 584.89,705.55 586.57,704.25 C587.10,703.84 586.23,704.74 584.63,706.25 Z" fill="rgb(171,215,41)"/>
<path d="M 521.00 479.47 C517.42,483.36 511.93,489.35 508.79,492.77 L 503.08 498.99 L 489.29 486.41 C481.71,479.49 474.06,472.19 472.31,470.19 L 469.11 466.54 L 471.74 463.02 C473.18,461.08 476.92,456.80 480.05,453.50 C486.41,446.79 498.29,433.78 501.44,430.08 C502.57,428.75 506.03,424.93 509.12,421.58 C516.96,413.10 520.00,409.37 520.00,408.22 C520.00,407.68 515.24,402.79 509.43,397.37 C503.61,391.94 496.70,385.48 494.07,383.00 C491.44,380.52 485.17,374.73 480.14,370.13 C475.11,365.53 471.00,361.33 471.00,360.81 C471.00,359.97 479.52,350.04 488.50,340.43 C506.06,321.62 508.71,320.00 522.02,320.00 C531.39,320.00 536.32,321.44 541.80,325.77 C543.79,327.34 543.96,327.97 543.05,330.36 C542.47,331.88 542.01,334.56 542.03,336.32 C542.07,339.96 545.18,349.58 546.87,351.27 C547.49,351.89 548.00,352.98 548.00,353.70 C548.00,354.42 548.34,355.00 548.75,355.01 C549.16,355.01 551.08,356.49 553.00,358.28 C559.15,364.01 563.66,365.38 574.17,364.70 C582.77,364.14 583.48,364.25 585.28,366.30 C591.08,372.95 593.71,383.54 591.96,393.23 C590.37,402.11 588.59,404.81 573.59,421.12 C570.24,424.76 566.35,429.03 564.93,430.62 C553.75,443.18 550.96,446.27 545.59,452.02 C542.24,455.61 536.80,461.66 533.50,465.47 C530.20,469.27 524.58,475.57 521.00,479.47 ZM 646.87 485.00 C647.27,485.00 648.14,485.54 648.80,486.20 C649.38,486.78 649.86,487.08 649.98,486.94 C654.48,491.78 655.77,493.57 662.45,503.58 C666.70,509.96 674.14,523.94 675.44,528.00 C675.88,529.38 676.88,532.53 677.67,535.00 C680.68,544.47 682.20,555.15 683.07,573.00 C683.56,583.17 684.45,596.22 685.03,602.00 C687.43,625.82 688.16,631.49 688.92,632.47 C689.36,633.04 690.01,635.70 690.36,638.40 C690.71,641.09 691.37,643.79 691.81,644.40 C692.26,645.00 693.22,647.97 693.96,651.00 C695.21,656.17 696.80,660.17 702.60,672.69 C703.92,675.54 705.00,678.11 705.00,678.40 C705.00,678.87 712.38,692.00 716.59,699.10 C716.31,698.78 716.05,698.53 715.85,698.41 C715.09,697.94 714.96,698.13 715.47,698.96 C715.92,699.67 715.72,700.55 715.03,700.98 C714.58,701.26 714.43,701.59 714.60,702.05 C713.01,700.70 711.06,698.91 708.76,696.71 C703.50,691.64 695.20,683.90 690.32,679.50 C682.05,672.05 664.33,655.75 652.57,644.77 C646.97,639.54 645.73,639.13 643.81,641.85 C642.61,643.53 635.89,650.93 615.00,673.49 C610.88,677.95 603.67,685.81 599.00,690.96 C594.33,696.12 588.60,702.28 586.28,704.66 C583.95,707.05 581.81,709.00 581.51,709.00 C581.49,709.00 581.47,708.99 581.45,708.98 C581.79,708.82 583.15,707.65 584.63,706.25 C586.23,704.74 587.10,703.84 586.57,704.25 C584.89,705.55 583.00,705.07 583.00,703.33 C583.00,702.56 582.89,702.04 582.73,702.03 L 582.75 702.00 C583.07,701.17 583.39,700.28 583.46,700.00 C583.53,699.72 584.18,697.14 584.89,694.25 C585.61,691.36 586.61,688.74 587.10,688.44 C587.60,688.13 588.00,687.12 588.01,686.19 C588.01,685.26 588.68,683.21 589.51,681.64 C590.33,680.06 591.00,678.33 591.00,677.80 C591.00,674.38 605.30,646.49 612.44,636.00 C616.13,630.58 616.95,629.26 619.37,624.88 C620.39,623.02 622.98,619.16 625.12,616.29 C627.25,613.43 629.00,610.88 629.00,610.62 C629.00,610.37 631.06,607.08 633.58,603.33 C638.85,595.48 647.83,577.07 650.34,569.00 C655.46,552.47 655.17,524.29 649.64,501.50 C648.07,495.03 646.18,489.30 645.07,487.61 C645.32,487.85 645.54,487.55 645.73,486.75 C645.96,485.79 646.47,485.00 646.87,485.00 ZM 677.40 398.75 C674.58,393.14 667.44,382.59 662.84,377.24 C654.77,367.85 639.35,355.96 623.70,347.08 C619.75,344.84 618.00,343.27 618.22,342.15 C618.62,340.14 621.15,340.18 633.43,342.37 C637.92,343.17 641.82,343.67 642.65,343.58 C642.77,343.61 642.89,343.65 643.00,343.69 C645.47,344.53 649.14,345.60 651.14,346.09 C662.81,348.89 686.90,362.77 698.25,373.24 C700.79,375.58 707.06,381.40 712.19,386.16 C717.31,390.93 723.30,396.24 725.50,397.96 C727.70,399.69 729.95,401.64 730.50,402.30 C735.96,408.85 765.69,426.68 778.50,431.09 C780.70,431.85 783.85,433.26 785.50,434.23 C787.15,435.20 789.73,435.99 791.23,436.00 C791.53,436.00 791.90,436.02 792.30,436.07 C792.28,436.07 792.25,436.07 792.23,436.07 C790.44,436.15 798.30,438.98 805.75,440.95 C810.10,442.10 811.46,444.47 808.25,445.31 C807.29,445.56 810.04,445.82 814.37,445.88 C814.81,445.89 815.22,445.90 815.61,445.90 C813.01,446.08 809.33,446.25 804.28,446.44 C794.50,446.79 782.67,447.52 778.00,448.04 C773.33,448.57 762.08,449.05 753.00,449.11 C743.92,449.18 733.58,449.52 730.00,449.87 L 723.50 450.50 L 723.80 459.50 C725.16,499.84 726.11,523.57 726.60,529.50 C727.03,534.72 726.81,536.98 725.75,538.39 C724.39,540.19 724.25,540.15 722.29,537.39 C720.42,534.74 714.72,523.75 711.45,516.50 C705.29,502.83 698.65,481.25 695.30,464.00 C693.86,456.61 693.08,452.86 691.15,444.00 C690.61,441.52 689.63,436.58 688.97,433.00 C686.97,422.00 682.55,410.23 676.61,399.37 C680.07,405.36 680.78,405.50 677.40,398.75 ZM 663.85 737.57 C658.65,740.21 647.99,741.45 642.00,740.11 C632.39,737.96 623.49,730.93 618.58,721.60 C616.35,717.36 616.00,715.46 616.00,707.48 C616.00,695.88 618.09,690.72 625.90,683.02 C638.57,670.53 657.96,669.96 671.02,681.71 C676.43,686.58 678.37,689.59 681.17,697.50 C683.09,702.94 683.61,713.51 682.00,714.50 C681.45,714.84 681.00,715.83 681.00,716.70 C681.00,722.40 671.88,733.51 663.85,737.57 ZM 781.36 528.51 C780.82,528.67 780.27,528.82 779.73,528.95 C780.28,528.54 777.86,528.32 773.33,528.38 C769.66,528.42 766.88,528.69 766.34,529.01 C755.36,526.60 745.45,518.41 741.53,507.07 C739.55,501.33 739.57,490.61 741.59,484.68 C743.38,479.45 750.49,470.98 756.04,467.47 C760.64,464.57 770.32,462.61 777.24,463.19 C784.55,463.79 791.26,467.43 797.49,474.16 C803.70,480.87 806.00,486.70 806.00,495.74 C806.00,504.84 803.62,511.16 797.80,517.53 C792.07,523.80 788.08,526.47 781.36,528.51 ZM 586.33 352.22 C581.83,355.25 573.11,356.59 567.50,355.13 C562.60,353.86 557.41,349.87 554.62,345.25 C552.46,341.67 552.00,339.70 552.00,333.91 C552.00,326.34 553.41,322.45 557.86,317.69 C563.69,311.46 576.10,309.04 583.17,312.75 C587.44,315.00 592.33,320.07 594.39,324.40 C598.57,333.21 594.69,346.61 586.33,352.22 ZM 674.82 396.20 C669.95,387.87 664.21,380.20 658.01,373.97 C655.85,371.80 653.63,369.72 651.27,367.68 C661.30,376.30 668.61,385.29 674.82,396.20 ZM 624.90 339.77 C618.77,338.87 615.07,338.92 612.61,339.88 C612.58,339.89 612.55,339.91 612.53,339.92 C612.97,339.31 614.82,339.13 617.87,339.07 C619.30,339.04 621.87,339.32 624.90,339.77 ZM 645.75 482.46 L 643.06 480.01 L 642.97 479.50 ZM 719.22 705.18 C719.43,704.87 719.41,704.27 719.12,703.41 C719.72,704.64 719.74,705.22 719.22,705.18 ZM 821.03 444.55 C820.34,443.79 818.21,442.90 816.22,442.54 C818.26,442.91 820.41,443.79 821.00,444.50 C821.01,444.51 821.02,444.53 821.03,444.55 ZM 581.68 705.74 C581.50,706.71 581.36,707.65 581.32,708.27 C581.33,707.67 581.47,706.75 581.68,705.74 ZM 643.66 483.18 C643.92,484.35 644.16,485.28 644.37,485.99 C644.11,485.19 643.85,484.18 643.66,483.18 ZM 632.27 341.07 C631.48,340.92 630.67,340.77 629.87,340.62 C628.91,340.44 627.99,340.27 627.12,340.13 C628.79,340.41 630.55,340.73 632.27,341.07 Z" fill="rgb(247,149,14)"/>
<path d="M 3.00 453.50 L 3.00 0.00 L 457.00 0.00 L 911.00 0.00 L 911.00 453.50 L 911.00 907.00 L 457.00 907.00 L 3.00 907.00 L 3.00 453.50 ZM 466.98 806.00 C467.66,802.42 468.84,798.08 469.60,796.35 C470.37,794.62 471.01,792.14 471.03,790.85 C471.05,789.56 471.72,787.63 472.53,786.56 C473.34,785.49 474.00,783.95 474.00,783.14 C474.00,782.33 475.58,778.35 477.50,774.30 C479.42,770.24 481.00,766.51 481.00,766.01 C481.00,765.50 482.35,762.80 484.00,760.00 C485.65,757.20 487.00,754.51 487.00,754.03 C487.00,753.54 487.59,752.55 488.31,751.82 C489.03,751.09 491.51,747.32 493.82,743.43 C496.13,739.54 499.36,735.07 501.01,733.49 C502.65,731.92 504.00,730.15 504.00,729.56 C504.01,728.41 506.07,726.06 521.61,709.49 C527.29,703.43 532.74,697.44 533.72,696.16 C534.70,694.88 537.05,692.05 538.95,689.88 C545.96,681.84 555.76,665.46 559.53,655.50 C563.14,645.96 564.99,640.18 565.00,638.46 C565.00,637.34 565.62,633.96 566.39,630.96 C567.15,627.96 568.08,620.78 568.45,615.00 C569.22,603.14 569.00,603.14 562.70,614.86 C557.86,623.86 557.66,624.20 553.60,630.48 C551.47,633.77 547.99,638.53 545.86,641.05 C543.74,643.57 542.00,645.96 542.00,646.36 C542.00,647.58 531.35,657.41 523.02,663.86 C518.69,667.22 511.62,671.58 507.32,673.55 C503.02,675.52 498.81,677.49 497.97,677.94 C497.12,678.38 494.87,679.08 492.97,679.49 C491.06,679.90 489.03,680.61 488.46,681.07 C487.00,682.23 464.64,687.27 453.00,689.06 C449.42,689.60 445.60,690.46 444.50,690.95 C443.40,691.44 440.48,692.11 438.00,692.44 C435.52,692.77 431.48,693.67 429.00,694.43 C426.52,695.19 421.80,696.58 418.50,697.52 C410.86,699.69 401.22,702.97 398.00,704.51 C396.62,705.16 393.92,706.36 392.00,707.16 C387.16,709.19 376.82,714.00 375.00,715.06 C374.17,715.54 371.02,717.41 368.00,719.22 L 362.50 722.50 L 371.50 722.83 C376.45,723.01 385.00,722.69 390.50,722.11 C396.00,721.54 413.59,720.78 429.59,720.43 L 458.67 719.79 L 459.42 745.14 C459.83,759.09 460.48,781.08 460.87,794.00 C461.25,806.92 461.95,818.12 462.42,818.88 C463.45,820.54 465.14,815.78 466.98,806.00 ZM 420.18 801.53 C429.44,800.03 440.60,789.95 444.04,779.99 C448.29,767.68 444.98,753.46 435.83,744.79 C429.21,738.51 420.22,735.00 410.77,735.00 C403.82,735.00 393.79,739.52 388.07,745.23 C381.56,751.74 379.00,758.42 379.00,768.87 C378.99,776.80 379.28,778.07 382.57,784.50 C387.51,794.15 395.61,800.11 406.20,801.89 C411.41,802.77 412.83,802.73 420.18,801.53 ZM 663.85 737.57 C671.88,733.51 681.00,722.40 681.00,716.70 C681.00,715.83 681.45,714.84 682.00,714.50 C683.61,713.51 683.09,702.94 681.17,697.50 C678.37,689.59 676.43,686.58 671.02,681.71 C657.96,669.96 638.57,670.53 625.90,683.02 C618.09,690.72 616.00,695.88 616.00,707.48 C616.00,715.46 616.35,717.36 618.58,721.60 C623.49,730.93 632.39,737.96 642.00,740.11 C647.99,741.45 658.65,740.21 663.85,737.57 ZM 210.30 712.19 C211.30,711.38 221.38,705.79 227.00,702.93 C228.44,702.20 236.96,698.26 247.50,693.45 C252.27,691.28 260.23,688.94 270.00,686.84 C272.48,686.31 276.03,685.40 277.89,684.82 C282.58,683.37 306.32,681.24 332.00,679.98 C343.83,679.40 354.45,678.53 355.62,678.04 C356.79,677.56 359.94,676.87 362.62,676.51 C368.73,675.69 375.89,673.48 383.00,670.21 C386.02,668.83 389.85,667.07 391.50,666.31 C396.30,664.10 403.47,659.78 408.59,656.00 C411.20,654.08 414.07,652.05 414.96,651.50 C418.08,649.57 427.00,641.68 427.00,640.84 C427.00,639.51 423.50,639.86 420.36,641.49 C418.79,642.32 416.79,642.99 415.92,642.99 C415.05,643.00 414.00,643.33 413.60,643.74 C412.79,644.54 399.71,647.33 388.50,649.10 C380.24,650.40 350.65,649.81 347.00,648.28 C345.62,647.70 342.02,646.67 339.00,645.99 C335.98,645.32 331.48,643.76 329.00,642.53 C326.52,641.30 321.58,638.86 318.00,637.11 C314.42,635.35 310.32,633.15 308.89,632.21 C307.45,631.27 304.07,629.17 301.39,627.55 C298.70,625.93 294.70,623.20 292.50,621.49 C290.30,619.77 286.02,616.85 283.00,614.99 C279.98,613.14 275.25,610.19 272.50,608.43 C265.73,604.11 259.02,600.25 256.02,598.95 C254.66,598.36 253.31,597.57 253.02,597.19 C252.47,596.45 248.59,594.53 240.50,590.98 C237.75,589.77 234.15,588.19 232.50,587.47 C230.85,586.74 227.70,585.64 225.50,585.01 C223.30,584.38 220.60,583.49 219.50,583.04 C214.04,580.78 208.01,579.05 203.50,578.43 L 198.50 577.75 L 205.50 584.49 C209.35,588.19 215.20,593.49 218.50,596.26 C221.80,599.02 230.80,607.23 238.50,614.49 C246.20,621.76 255.73,630.47 259.69,633.84 C263.64,637.22 267.15,640.44 267.50,641.00 C268.28,642.27 262.94,649.95 261.25,649.98 C260.56,649.99 260.00,650.64 260.00,651.42 C260.00,652.20 259.64,652.98 259.21,653.17 C258.77,653.35 252.42,660.03 245.10,668.00 C237.77,675.97 230.81,683.41 229.64,684.53 C228.46,685.65 225.70,688.80 223.50,691.53 C221.30,694.26 218.10,697.85 216.38,699.50 C211.05,704.63 202.00,714.94 202.00,715.88 C202.00,716.76 207.90,714.14 210.30,712.19 ZM 586.28 704.66 C588.60,702.28 594.33,696.12 599.00,690.96 C603.67,685.81 610.88,677.95 615.00,673.49 C635.89,650.93 642.61,643.53 643.81,641.85 C645.73,639.13 646.97,639.54 652.57,644.77 C664.33,655.75 682.05,672.05 690.32,679.50 C695.20,683.90 703.50,691.64 708.76,696.71 C718.24,705.83 721.90,707.76 718.13,701.66 C714.57,695.89 705.00,678.94 705.00,678.40 C705.00,678.11 703.92,675.54 702.60,672.69 C696.80,660.17 695.21,656.17 693.96,651.00 C693.22,647.97 692.26,645.00 691.81,644.40 C691.37,643.79 690.71,641.09 690.36,638.40 C690.01,635.70 689.36,633.04 688.92,632.47 C688.16,631.49 687.43,625.82 685.03,602.00 C684.45,596.22 683.56,583.17 683.07,573.00 C682.20,555.15 680.68,544.47 677.67,535.00 C676.88,532.53 675.88,529.38 675.44,528.00 C674.14,523.94 666.70,509.96 662.45,503.58 C655.14,492.63 654.29,491.52 648.62,485.50 L 642.97 479.50 L 643.62 483.00 C643.99,484.92 644.60,486.95 645.00,487.50 C646.10,489.04 648.04,494.88 649.64,501.50 C655.17,524.29 655.46,552.47 650.34,569.00 C647.83,577.07 638.85,595.48 633.58,603.33 C631.06,607.08 629.00,610.37 629.00,610.62 C629.00,610.88 627.25,613.43 625.12,616.29 C622.98,619.16 620.39,623.02 619.37,624.88 C616.95,629.26 616.13,630.58 612.44,636.00 C605.30,646.49 591.00,674.38 591.00,677.80 C591.00,678.33 590.33,680.06 589.51,681.64 C588.68,683.21 588.01,685.26 588.01,686.19 C588.00,687.12 587.60,688.13 587.10,688.44 C586.61,688.74 585.61,691.36 584.89,694.25 C584.18,697.14 583.53,699.72 583.46,700.00 C583.39,700.28 583.07,701.17 582.75,702.00 C581.71,704.67 580.95,709.00 581.51,709.00 C581.81,709.00 583.95,707.05 586.28,704.66 ZM 209.00 678.12 C209.00,677.63 211.12,676.70 213.71,676.05 C220.20,674.42 231.19,663.27 232.87,656.62 C234.72,649.27 234.27,636.20 232.01,631.21 C229.75,626.23 219.45,615.02 217.10,614.97 C216.22,614.95 214.63,614.28 213.56,613.47 C212.16,612.41 208.88,612.00 201.75,612.00 C192.85,612.00 191.31,612.29 185.97,614.94 C176.26,619.75 169.91,628.34 167.87,639.39 C166.86,644.91 166.94,646.87 168.47,653.16 C170.95,663.40 176.74,670.62 186.00,675.00 C188.48,676.17 191.18,677.52 192.00,678.00 C193.97,679.16 209.00,679.26 209.00,678.12 ZM 345.20 600.07 C346.47,599.56 348.68,598.89 350.12,598.58 C353.92,597.78 360.85,590.23 362.13,585.50 C363.62,580.06 362.71,568.45 360.63,566.15 C359.73,565.15 359.00,563.85 359.00,563.24 C359.00,561.77 354.30,558.15 350.13,556.41 C341.51,552.81 328.21,556.60 323.52,564.00 C319.99,569.59 318.66,576.73 320.08,582.58 C321.28,587.52 326.59,595.91 328.55,595.97 C329.13,595.99 330.15,596.55 330.83,597.23 C331.93,598.33 338.48,600.52 341.70,600.87 C342.36,600.94 343.94,600.58 345.20,600.07 ZM 583.50 593.00 C583.84,592.45 585.07,592.00 586.24,592.00 C587.48,592.00 590.35,589.94 593.12,587.07 C600.46,579.46 601.96,570.72 597.51,561.60 C594.32,555.05 593.37,553.97 588.36,551.25 C579.47,546.41 569.44,547.61 562.13,554.38 C552.61,563.19 552.60,578.55 562.10,587.82 C563.97,589.65 566.75,591.39 568.27,591.70 C569.79,592.01 571.28,592.65 571.58,593.13 C572.33,594.34 582.74,594.23 583.50,593.00 ZM 407.00 589.04 C411.85,586.57 421.87,576.66 436.28,560.09 L 445.33 549.69 L 441.41 546.18 C439.26,544.25 434.03,539.37 429.78,535.33 C425.54,531.30 421.92,528.00 421.74,528.00 C421.56,528.00 418.73,525.50 415.46,522.44 C412.18,519.37 406.24,513.89 402.25,510.24 C398.26,506.59 395.01,503.13 395.02,502.55 C395.03,501.97 397.84,498.52 401.27,494.88 C414.66,480.66 417.60,477.44 420.33,474.03 C421.89,472.09 427.96,465.39 433.83,459.15 C439.70,452.91 444.90,446.79 445.39,445.55 C446.18,443.56 445.14,442.19 436.56,433.90 C431.21,428.73 426.31,424.20 425.67,423.84 C425.03,423.47 421.80,420.67 418.50,417.61 L 412.50 412.05 L 403.00 422.16 C397.77,427.72 393.05,433.06 392.50,434.01 C391.95,434.97 386.72,440.87 380.87,447.13 C367.93,460.97 364.65,464.59 357.25,473.19 C354.09,476.87 350.94,479.90 350.25,479.94 C349.56,479.97 349.00,480.64 349.00,481.42 C349.00,482.20 348.66,482.98 348.25,483.17 C346.43,483.97 329.01,503.88 327.06,507.38 C320.72,518.73 321.56,532.85 329.16,542.71 C333.64,548.52 334.21,548.65 342.52,545.80 C344.83,545.01 346.66,545.14 350.30,546.38 C352.93,547.27 355.62,548.00 356.28,548.01 C358.75,548.02 367.03,556.27 369.48,561.14 C371.61,565.38 372.00,567.55 372.00,575.01 C372.00,583.59 372.09,583.93 374.84,585.89 C376.40,587.00 379.89,588.83 382.59,589.96 C389.26,592.75 400.56,592.32 407.00,589.04 ZM 539.79 586.40 C547.15,582.80 548.40,580.61 547.10,573.58 C545.83,566.71 547.22,558.06 550.31,553.60 C557.52,543.20 562.28,540.58 574.24,540.43 C584.27,540.31 585.72,539.50 589.21,532.06 C592.11,525.89 592.30,511.24 589.54,506.00 C587.13,501.41 581.37,494.26 577.04,490.51 C573.73,487.63 569.11,483.40 557.00,472.13 C553.97,469.32 550.84,467.01 550.03,467.01 C549.22,467.00 547.50,468.24 546.21,469.75 C541.61,475.13 515.67,503.89 507.94,512.18 C505.98,514.28 504.03,516.00 503.60,516.00 C502.56,516.00 498.60,512.86 492.47,507.17 C489.71,504.60 484.75,500.02 481.46,497.00 C478.17,493.98 469.03,485.42 461.15,478.00 C453.28,470.58 446.48,464.37 446.05,464.21 C445.62,464.05 443.79,465.63 441.98,467.71 C440.17,469.80 433.92,476.61 428.09,482.85 C422.27,489.09 417.31,494.72 417.09,495.35 C416.86,495.98 415.96,497.02 415.09,497.66 C413.44,498.89 415.75,501.46 431.12,515.50 C439.46,523.11 467.21,549.18 469.70,551.74 C470.91,552.98 472.18,554.00 472.51,554.00 C472.85,554.00 477.26,557.97 482.31,562.82 C505.50,585.08 508.59,587.50 516.00,589.13 C522.44,590.54 534.04,589.21 539.79,586.40 ZM 299.00 563.70 C299.00,562.98 297.09,561.42 294.75,560.22 C266.88,545.92 245.61,526.37 234.69,505.00 C230.98,497.75 227.00,487.76 227.00,485.71 C227.00,484.80 226.37,482.59 225.60,480.78 C224.14,477.34 222.58,470.58 220.94,460.52 C220.41,457.24 219.56,453.19 219.07,451.52 C218.58,449.86 217.51,445.12 216.69,441.00 C215.87,436.88 214.47,430.58 213.57,427.00 C212.67,423.42 211.57,418.92 211.11,417.00 C209.89,411.81 203.74,394.33 202.05,391.24 C201.53,390.28 199.85,386.58 198.33,383.00 C195.00,375.22 187.83,362.78 186.39,362.30 C185.14,361.88 185.49,383.58 187.07,405.50 C187.66,413.75 188.23,428.15 188.32,437.50 L 188.50 454.50 L 164.50 455.20 C151.30,455.59 136.45,456.39 131.50,456.98 C126.55,457.57 116.11,458.01 108.30,457.95 C91.53,457.83 85.58,459.54 96.50,461.35 C98.15,461.62 102.65,462.80 106.50,463.97 C110.35,465.15 114.85,466.49 116.50,466.96 C121.27,468.33 126.18,470.13 130.61,472.14 C132.87,473.16 135.05,474.00 135.46,474.00 C136.75,474.00 155.72,483.74 159.68,486.43 C161.76,487.84 163.87,489.00 164.37,489.00 C165.40,489.00 179.32,499.99 179.83,501.21 C180.02,501.64 180.78,502.00 181.53,502.00 C182.29,502.00 183.26,502.56 183.70,503.25 C184.14,503.94 186.98,506.72 190.00,509.44 C193.02,512.16 198.93,517.56 203.11,521.44 C216.46,533.82 229.36,543.89 236.75,547.70 C238.54,548.62 240.00,549.74 240.00,550.19 C240.00,550.63 240.68,551.00 241.51,551.00 C242.34,551.00 244.93,551.89 247.26,552.98 C257.44,557.72 272.94,562.02 282.20,562.66 C287.32,563.01 292.40,563.65 293.50,564.08 C296.59,565.30 299.00,565.13 299.00,563.70 ZM 726.60 529.50 C726.11,523.57 725.16,499.84 723.80,459.50 L 723.50 450.50 L 730.00 449.87 C733.58,449.52 743.92,449.18 753.00,449.11 C762.08,449.05 773.33,448.57 778.00,448.04 C782.67,447.52 794.50,446.79 804.28,446.44 C818.61,445.91 821.86,445.53 821.00,444.50 C820.41,443.79 818.26,442.91 816.21,442.54 C811.83,441.76 803.03,439.29 797.73,437.37 C795.66,436.62 792.73,436.00 791.23,436.00 C789.73,435.99 787.15,435.20 785.50,434.23 C783.85,433.26 780.70,431.85 778.50,431.09 C765.69,426.68 735.96,408.85 730.50,402.30 C729.95,401.64 727.70,399.69 725.50,397.96 C723.30,396.24 717.31,390.93 712.19,386.16 C707.06,381.40 700.79,375.58 698.25,373.24 C686.90,362.77 662.81,348.89 651.14,346.09 C649.14,345.60 645.47,344.53 643.00,343.69 C637.21,341.74 622.22,338.98 617.87,339.07 C609.45,339.25 610.15,340.28 624.56,348.92 C639.50,357.89 649.33,365.25 658.01,373.97 C672.94,388.96 685.20,412.33 688.97,433.00 C689.63,436.58 690.61,441.52 691.15,444.00 C693.08,452.86 693.86,456.61 695.30,464.00 C698.65,481.25 705.29,502.83 711.45,516.50 C714.72,523.75 720.42,534.74 722.29,537.39 C724.25,540.15 724.39,540.19 725.75,538.39 C726.81,536.98 727.03,534.72 726.60,529.50 ZM 781.36 528.51 C788.08,526.47 792.07,523.80 797.80,517.53 C803.62,511.16 806.00,504.84 806.00,495.74 C806.00,486.70 803.70,480.87 797.49,474.16 C791.26,467.43 784.55,463.79 777.24,463.19 C770.32,462.61 760.64,464.57 756.04,467.47 C750.49,470.98 743.38,479.45 741.59,484.68 C739.57,490.61 739.55,501.33 741.53,507.07 C747.22,523.51 765.46,533.33 781.36,528.51 ZM 521.00 479.47 C524.58,475.57 530.20,469.27 533.50,465.47 C536.80,461.66 542.24,455.61 545.59,452.02 C550.96,446.27 553.75,443.18 564.93,430.62 C566.35,429.03 570.24,424.76 573.59,421.12 C588.59,404.81 590.37,402.11 591.96,393.23 C593.71,383.54 591.08,372.95 585.28,366.30 C583.48,364.25 582.77,364.14 574.17,364.70 C563.66,365.38 559.15,364.01 553.00,358.28 C551.08,356.49 549.16,355.01 548.75,355.01 C548.34,355.00 548.00,354.42 548.00,353.70 C548.00,352.98 547.49,351.89 546.87,351.27 C545.18,349.58 542.07,339.96 542.03,336.32 C542.01,334.56 542.47,331.88 543.05,330.36 C543.96,327.97 543.79,327.34 541.80,325.77 C536.32,321.44 531.39,320.00 522.02,320.00 C508.71,320.00 506.06,321.62 488.50,340.43 C479.52,350.04 471.00,359.97 471.00,360.81 C471.00,361.33 475.11,365.53 480.14,370.13 C485.17,374.73 491.44,380.52 494.07,383.00 C496.70,385.48 503.61,391.94 509.43,397.37 C515.24,402.79 520.00,407.68 520.00,408.22 C520.00,409.37 516.96,413.10 509.12,421.58 C506.03,424.93 502.57,428.75 501.44,430.08 C498.29,433.78 486.41,446.79 480.05,453.50 C476.92,456.80 473.18,461.08 471.74,463.02 L 469.11 466.54 L 472.31 470.19 C474.06,472.19 481.71,479.49 489.29,486.41 L 503.08 498.99 L 508.79 492.77 C511.93,489.35 517.42,483.36 521.00,479.47 ZM 481.00 433.41 C481.83,432.15 486.95,426.36 492.39,420.54 L 502.28 409.96 L 497.39 405.33 C494.70,402.79 485.98,394.61 478.00,387.16 C470.02,379.71 462.78,372.91 461.89,372.06 C461.01,371.20 458.98,369.40 457.39,368.05 C455.80,366.70 447.30,358.82 438.50,350.54 C406.50,320.41 405.32,319.63 391.50,319.70 C382.35,319.75 376.15,321.71 372.95,325.57 C372.29,326.35 371.14,327.00 370.38,327.00 C369.12,327.00 368.47,329.03 368.95,331.46 C369.69,335.23 368.89,350.05 367.81,352.57 C365.09,358.93 354.94,368.00 350.55,368.00 C349.37,368.00 347.90,368.50 347.29,369.11 C346.23,370.17 340.60,369.93 335.00,368.57 C332.86,368.06 332.11,368.60 329.75,372.36 C328.24,374.78 327.00,377.40 327.00,378.18 C327.00,378.96 326.44,380.16 325.75,380.85 C324.96,381.64 324.50,384.99 324.50,389.88 C324.50,403.11 326.40,405.74 357.08,434.82 C361.24,438.77 365.12,442.00 365.70,442.00 C366.63,442.00 377.51,430.55 384.11,422.63 C385.42,421.05 388.30,417.87 390.50,415.57 C392.70,413.26 395.96,409.65 397.74,407.54 C399.52,405.43 403.48,401.08 406.55,397.86 C411.98,392.17 412.20,392.05 414.83,393.41 C416.31,394.18 419.91,397.33 422.82,400.40 C425.73,403.48 428.50,406.00 428.97,406.00 C429.45,406.00 429.98,406.34 430.17,406.75 C430.57,407.65 448.53,424.71 459.40,434.50 C463.67,438.35 467.89,442.27 468.78,443.22 C470.29,444.83 470.67,444.65 474.94,440.32 C477.45,437.78 480.17,434.67 481.00,433.41 ZM 153.72 438.19 C158.39,435.76 167.19,427.08 169.04,423.08 C169.70,421.66 170.68,419.64 171.23,418.59 C173.49,414.23 173.35,405.37 170.89,397.89 C168.90,391.82 167.54,389.66 162.50,384.57 C155.37,377.39 151.66,375.86 139.92,375.29 C132.15,374.91 130.79,375.13 125.52,377.62 C117.89,381.23 113.06,386.11 109.07,394.20 C104.44,403.61 104.07,410.43 107.72,419.21 C111.57,428.49 116.87,434.51 124.37,438.11 C130.06,440.85 131.18,441.03 140.00,440.72 C147.37,440.46 150.45,439.89 153.72,438.19 ZM 266.70 418.63 C265.86,416.17 265.42,413.91 265.73,413.60 C266.04,413.30 265.77,412.43 265.14,411.67 C264.52,410.92 263.71,408.09 263.35,405.40 C262.99,402.70 262.32,400.25 261.86,399.95 C261.07,399.43 260.33,394.83 257.81,374.67 C256.03,360.53 258.88,341.13 264.86,326.50 C266.43,322.68 275.38,304.50 275.94,304.00 C276.80,303.23 285.00,291.16 285.00,290.65 C285.00,290.41 287.92,285.92 291.50,280.69 C295.08,275.45 298.00,270.91 298.00,270.59 C298.00,270.27 299.46,267.87 301.25,265.25 C303.04,262.64 305.04,259.60 305.70,258.50 C308.01,254.64 320.78,228.48 321.32,226.50 C322.07,223.76 324.86,215.94 325.96,213.50 C326.45,212.40 327.41,209.02 328.08,206.00 C328.76,202.98 329.78,199.73 330.37,198.80 C330.95,197.86 331.06,196.73 330.62,196.30 C329.85,195.53 319.09,206.35 307.14,219.90 C299.85,228.18 301.38,226.50 287.01,242.01 C280.13,249.43 273.50,256.49 272.26,257.70 C271.02,258.91 270.00,260.27 270.00,260.71 C270.00,261.16 269.08,262.09 267.95,262.80 C265.40,264.39 265.13,264.20 246.63,246.68 C238.98,239.43 231.76,232.85 230.61,232.06 C229.45,231.26 221.99,224.51 214.03,217.06 C206.08,209.60 198.21,202.26 196.56,200.75 C193.58,198.02 192.00,197.32 192.00,198.73 C192.00,199.34 196.59,207.46 200.07,213.00 C200.59,213.82 201.56,215.62 202.24,217.00 C202.91,218.38 203.69,219.73 203.98,220.00 C204.93,220.91 210.59,233.08 213.99,241.50 C214.43,242.60 215.74,245.83 216.90,248.69 C218.05,251.54 219.00,254.55 219.00,255.37 C219.00,256.20 219.53,258.14 220.18,259.68 C221.47,262.77 223.48,271.91 225.08,282.00 C225.65,285.58 226.51,297.73 227.00,309.00 C228.04,333.31 229.67,351.51 231.02,354.04 C231.56,355.05 232.00,357.26 232.00,358.97 C232.00,360.67 232.66,363.63 233.46,365.55 C234.26,367.47 234.90,369.14 234.87,369.27 C234.60,370.95 238.65,382.00 241.20,386.50 C241.83,387.60 243.67,390.98 245.30,394.00 C248.69,400.27 250.65,403.04 260.36,415.26 C264.19,420.07 267.52,423.81 267.77,423.56 C268.02,423.31 267.54,421.09 266.70,418.63 ZM 347.23 358.58 C353.10,355.98 359.00,349.76 359.00,346.17 C359.00,345.04 359.45,343.84 360.00,343.50 C362.35,342.05 360.24,328.84 357.17,325.77 C356.53,325.13 356.00,324.21 356.00,323.73 C356.00,322.66 354.02,320.64 352.00,319.65 C351.17,319.25 349.38,318.27 348.00,317.48 C345.37,315.95 338.12,315.59 331.65,316.66 C325.66,317.65 318.64,325.19 317.25,332.14 C315.47,341.02 317.17,347.51 322.78,353.25 C325.34,355.86 328.12,358.02 328.96,358.04 C329.81,358.05 331.62,358.71 333.00,359.50 C336.67,361.60 341.05,361.31 347.23,358.58 ZM 586.33 352.22 C594.69,346.61 598.57,333.21 594.39,324.40 C592.33,320.07 587.44,315.00 583.17,312.75 C576.10,309.04 563.69,311.46 557.86,317.69 C553.41,322.45 552.00,326.34 552.00,333.91 C552.00,339.70 552.46,341.67 554.62,345.25 C557.41,349.87 562.60,353.86 567.50,355.13 C573.11,356.59 581.83,355.25 586.33,352.22 ZM 712.00 325.15 C712.00,324.74 707.02,319.93 700.94,314.46 C694.85,308.98 687.26,302.02 684.06,299.00 C680.86,295.98 676.95,292.40 675.37,291.06 C672.64,288.73 664.02,280.76 650.22,267.81 L 643.94 261.91 L 649.22 255.83 C654.70,249.52 664.01,239.23 674.44,227.94 C679.97,221.96 692.08,208.77 704.25,195.49 C710.35,188.84 710.81,185.46 705.00,190.00 C703.62,191.08 701.75,191.97 700.83,191.98 C699.92,191.99 699.02,192.37 698.83,192.83 C698.57,193.50 688.71,198.95 673.00,207.12 C665.98,210.77 647.00,216.53 633.50,219.11 C630.75,219.64 626.25,220.55 623.50,221.13 C620.75,221.71 608.15,222.56 595.50,223.03 C545.00,224.87 526.75,230.40 496.50,253.06 C488.47,259.08 484.45,262.76 485.14,263.46 C485.50,263.82 488.42,263.37 491.64,262.46 C509.22,257.49 521.88,255.11 535.00,254.31 C545.66,253.66 565.72,255.51 570.87,257.62 C572.73,258.38 575.11,259.00 576.16,259.00 C579.85,259.00 606.64,273.83 623.81,285.37 C633.33,291.76 641.29,297.00 641.48,297.00 C641.68,297.00 645.47,299.25 649.90,302.00 C654.34,304.75 658.50,307.00 659.15,307.00 C659.81,307.00 661.05,307.60 661.92,308.34 C664.96,310.92 685.61,319.29 698.00,322.95 C709.92,326.48 712.00,326.81 712.00,325.15 ZM 348.53 290.25 C359.21,270.00 377.24,247.61 388.79,240.27 C390.28,239.32 391.73,238.31 392.00,238.02 C395.34,234.53 418.61,223.74 425.37,222.55 C427.50,222.17 429.98,221.47 430.87,220.98 C431.77,220.50 436.33,219.40 441.00,218.55 C478.53,211.65 490.42,208.64 511.00,200.78 C523.39,196.05 549.84,182.51 548.78,181.44 C548.08,180.75 485.79,183.02 477.00,184.06 C471.77,184.68 464.58,185.03 461.00,184.84 L 454.50 184.50 L 453.87 177.50 C453.53,173.65 453.19,163.45 453.12,154.82 C453.06,146.20 452.58,135.85 452.06,131.82 C451.54,127.80 450.82,115.65 450.45,104.82 C449.93,89.37 449.51,85.25 448.50,85.64 C447.79,85.91 446.91,88.24 446.55,90.82 C446.18,93.39 445.28,97.30 444.55,99.50 C443.81,101.70 442.42,106.20 441.45,109.50 C439.14,117.38 436.09,125.85 434.38,129.15 C433.62,130.61 433.00,132.22 433.00,132.73 C433.00,133.66 423.89,150.92 420.40,156.59 C414.96,165.43 405.32,178.13 398.00,186.08 C397.17,186.98 391.77,192.76 386.00,198.93 C380.23,205.11 375.08,210.90 374.57,211.82 C374.05,212.73 371.65,215.96 369.23,218.99 C361.67,228.46 361.40,228.88 356.73,238.50 C351.47,249.33 349.18,255.14 348.47,259.49 C348.11,261.69 347.52,263.94 347.16,264.49 C346.06,266.17 343.85,279.04 343.33,286.82 C342.87,293.67 343.24,297.00 344.46,297.00 C344.74,297.00 346.58,293.96 348.53,290.25 ZM 720.25 291.66 C722.86,290.97 725.53,289.87 726.20,289.20 C726.86,288.54 727.83,288.00 728.35,288.00 C730.78,288.00 737.97,280.54 741.04,274.83 C744.25,268.85 744.44,267.97 744.37,259.00 C744.29,249.63 744.23,249.40 739.94,242.25 C736.58,236.64 734.26,234.10 729.71,231.05 C723.02,226.55 718.31,225.52 707.55,226.22 C697.62,226.85 688.54,231.79 683.49,239.29 C681.57,242.14 680.00,245.18 680.00,246.04 C680.00,246.90 679.44,248.16 678.75,248.85 C677.93,249.67 677.52,253.12 677.55,258.80 C677.59,266.13 678.02,268.37 680.27,273.04 C683.45,279.62 690.67,287.15 695.81,289.26 C697.84,290.09 700.62,291.24 702.00,291.82 C705.43,293.25 714.51,293.17 720.25,291.66 ZM 277.31 227.63 C285.22,224.01 295.00,212.66 295.00,207.11 C295.00,206.01 295.45,204.84 296.00,204.50 C296.55,204.16 297.00,200.79 297.00,197.00 C297.00,193.21 296.55,189.84 296.00,189.50 C295.45,189.16 295.00,188.00 295.00,186.92 C295.00,184.11 290.45,175.80 287.24,172.75 C283.63,169.32 275.62,165.37 269.46,163.99 C260.10,161.89 248.66,165.17 240.50,172.29 C236.92,175.42 235.07,178.31 230.98,187.17 C229.09,191.27 229.36,201.77 231.51,207.50 C233.62,213.12 237.82,220.00 239.13,220.00 C239.61,220.00 240.00,220.62 240.00,221.38 C240.00,222.14 240.79,223.05 241.75,223.40 C242.71,223.75 245.75,225.35 248.50,226.96 C253.03,229.61 254.38,229.89 262.81,229.94 C270.57,229.99 272.99,229.60 277.31,227.63 ZM 514.12 166.18 C520.15,163.26 527.22,156.36 529.75,150.91 C534.36,140.97 534.84,135.69 532.08,125.14 C527.55,107.79 505.67,96.50 489.29,103.05 C475.87,108.42 469.35,115.91 466.67,129.01 C465.57,134.42 465.57,136.53 466.67,141.51 C468.09,147.92 470.99,154.06 474.40,157.84 C477.51,161.31 484.95,166.14 489.50,167.65 C495.55,169.66 508.53,168.89 514.12,166.18 Z" fill="rgb(254,254,253)"/>
</g>
</svg>